<?xml version="1.0" ?><!DOCTYPE svg  PUBLIC '-//W3C//DTD SVG 1.1//EN'  'http://www.w3.org/Graphics/SVG/1.1/DTD/svg11.dtd'><svg enable-background="new 0 0 128 128" id="Слой_1" version="1.1" viewBox="0 0 128 128" xml:space="preserve" xmlns="http://www.w3.org/2000/svg" xmlns:xlink="http://www.w3.org/1999/xlink"><circle cx="64" cy="64" fill="#EBE6DF" r="62"/><path d="M19.3,71.8h-4.5c-2.5,0-4.5-2-4.5-4.5v0c0-2.5,2-4.5,4.5-4.5h4.5" fill="#A5A4AA"/><rect fill="#A5A4AA" height="8.9" width="35.8" x="46.1" y="62.9"/><path d="M108.7,62.9h4.5c2.5,0,4.5,2,4.5,4.5v0c0,2.5-2,4.5-4.5,4.5h-4.5" fill="#A5A4AA"/><path d="M90.8,89.8h4.5c2.5,0,4.5-2,4.5-4.5V49.6c0-2.5-2-4.5-4.5-4.5h-4.5" fill="#CCE9E2"/><path d="M28.2,80.9h-4.5c-2.5,0-4.5-2-4.5-4.5V58.5c0-2.5,2-4.5,4.5-4.5h4.5" fill="#E3C2A1"/><path d="M99.8,80.9h4.5c2.5,0,4.5-2,4.5-4.5V58.5c0-2.5-2-4.5-4.5-4.5h-4.5" fill="#E3C2A1"/><path d="M37.2,89.8h-4.5c-2.5,0-4.5-2-4.5-4.5V49.6c0-2.5,2-4.5,4.5-4.5h4.5" fill="#CCE9E2"/><path d="M41.6,94.3L41.6,94.3c-2.5,0-4.5-2-4.5-4.5V45.1c0-2.5,2-4.5,4.5-4.5h0c2.5,0,4.5,2,4.5,4.5v44.7  C46.1,92.3,44.1,94.3,41.6,94.3z" fill="#F69678"/><path d="M86.4,94.3L86.4,94.3c2.5,0,4.5-2,4.5-4.5V45.1c0-2.5-2-4.5-4.5-4.5h0c-2.5,0-4.5,2-4.5,4.5v44.7  C81.9,92.3,83.9,94.3,86.4,94.3z" fill="#F69678"/><g><path d="M95.3,45.1h-4.5v5.4h4.5c2.5,0,4.5,2,4.5,4.5v-5.4C99.8,47.1,97.8,45.1,95.3,45.1z" fill="#FFFFFF"/></g><g><path d="M23.8,54c-2.5,0-4.5,2-4.5,4.5v5.4c0-2.5,2-4.5,4.5-4.5h4.5V54H23.8z" fill="#FFFFFF"/></g><g><path d="M104.2,54h-4.5v5.4h4.5c2.5,0,4.5,2,4.5,4.5v-5.4C108.7,56,106.7,54,104.2,54z" fill="#FFFFFF"/></g><g><path d="M32.7,45.1c-2.5,0-4.5,2-4.5,4.5v5.4c0-2.5,2-4.5,4.5-4.5h4.5v-5.4H32.7z" fill="#FFFFFF"/></g><g><path d="M41.6,40.6c-2.5,0-4.5,2-4.5,4.5v5.4c0-2.5,2-4.5,4.5-4.5c2.5,0,4.5,2,4.5,4.5v-5.4   C46.1,42.6,44.1,40.6,41.6,40.6z" fill="#FFFFFF"/></g><g><path d="M86.4,40.6c-2.5,0-4.5,2-4.5,4.5v5.4c0-2.5,2-4.5,4.5-4.5s4.5,2,4.5,4.5v-5.4   C90.8,42.6,88.8,40.6,86.4,40.6z" fill="#FFFFFF"/></g><path d="M113.2,61.5h-3.1v-3c0-3.2-2.6-5.8-5.8-5.8h-3.1v-3.1c0-3.2-2.6-5.8-5.8-5.8H92c-0.6-2.6-2.9-4.5-5.7-4.5  c-3.2,0-5.8,2.6-5.8,5.8v16.4H47.5V45.1c0-3.2-2.6-5.8-5.8-5.8c-2.7,0-5,1.9-5.7,4.5h-3.3c-3.2,0-5.8,2.6-5.8,5.8v3.1h-3.1  c-3.2,0-5.8,2.6-5.8,5.8v3h-3.1c-3.2,0-5.8,2.6-5.8,5.8c0,3.2,2.6,5.8,5.8,5.8h3.1v3.2c0,3.2,2.6,5.8,5.8,5.8h3.1v3.1  c0,3.2,2.6,5.8,5.8,5.8H36c0.6,2.6,2.9,4.5,5.7,4.5c3.2,0,5.8-2.6,5.8-5.8V73.2h33.1v16.7c0,3.2,2.6,5.8,5.8,5.8  c2.7,0,5-1.9,5.7-4.5h3.3c3.2,0,5.8-2.6,5.8-5.8v-3.1h3.1c3.2,0,5.8-2.6,5.8-5.8v-3.2h3.1c3.2,0,5.8-2.6,5.8-5.8  C119,64.1,116.4,61.5,113.2,61.5z M14.8,70.5c-1.7,0-3.1-1.4-3.1-3.1c0-1.7,1.4-3.1,3.1-3.1h3.1v6.3H14.8z M23.8,79.5  c-1.7,0-3.1-1.4-3.1-3.1V58.5c0-1.7,1.4-3.1,3.1-3.1h3.1v24.1H23.8z M29.6,85.3V49.6c0-1.7,1.4-3.1,3.1-3.1h3.1v42h-3.1  C31,88.5,29.6,87.1,29.6,85.3z M44.8,89.8c0,1.7-1.4,3.1-3.1,3.1c-1.7,0-3.1-1.4-3.1-3.1V45.1c0-1.7,1.4-3.1,3.1-3.1  c1.7,0,3.1,1.4,3.1,3.1V89.8z M47.5,70.5v-6.3h33.1v6.3H47.5z M89.5,89.8c0,1.7-1.4,3.1-3.1,3.1s-3.1-1.4-3.1-3.1V45.1  c0-1.7,1.4-3.1,3.1-3.1s3.1,1.4,3.1,3.1V89.8z M98.4,85.3c0,1.7-1.4,3.1-3.1,3.1h-3.1v-42h3.1c1.7,0,3.1,1.4,3.1,3.1V85.3z   M107.4,76.4c0,1.7-1.4,3.1-3.1,3.1h-3.1V55.4h3.1c1.7,0,3.1,1.4,3.1,3.1V76.4z M113.2,70.5h-3.1v-6.3h3.1c1.7,0,3.1,1.4,3.1,3.1  C116.3,69.1,114.9,70.5,113.2,70.5z" fill="#62355C"/></svg>