<?xml version="1.0" ?><!DOCTYPE svg  PUBLIC '-//W3C//DTD SVG 1.1//EN'  'http://www.w3.org/Graphics/SVG/1.1/DTD/svg11.dtd'><svg enable-background="new 0 0 128 128" id="Слой_1" version="1.1" viewBox="0 0 128 128" xml:space="preserve" xmlns="http://www.w3.org/2000/svg" xmlns:xlink="http://www.w3.org/1999/xlink"><circle cx="64" cy="64" fill="#F09371" r="62"/><g><path d="M105.8,45.1c2.9,1.5,4.9,4.5,4.9,8v53.7c0,9.9-8,17.9-17.9,17.9H21.2c-9.9,0-17.9-8-17.9-17.9V53.1   c0-4.9,4-8.9,8.9-8.9h49.6" fill="#16B3B1"/><path d="M110.7,94.6V53.1c0-3.5-2-6.5-4.9-8l-43.8-1H12.3c-4.9,0-8.9,4-8.9,8.9v41.5c6.6,7.4,16.2,12.1,26.8,12.1   h53.7C94.5,106.8,104.1,102.1,110.7,94.6z" opacity="0.1"/><path d="M110.7,71c0,14.8-12,26.8-26.8,26.8H30.2c-14.8,0-26.8-12-26.8-26.8V53.1c0-4.9,4-8.9,8.9-8.9h89.4   c4.9,0,8.9,4,8.9,8.9V71z" fill="#CCE9E2"/><g><path d="M10.5,106.8V53.1c0-4.9,4-8.9,8.9-8.9h-7.2c-4.9,0-8.9,4-8.9,8.9v53.7c0,9.9,8,17.9,17.9,17.9h7.2    C18.5,124.7,10.5,116.7,10.5,106.8z" fill="#FFFFFF"/></g><circle cx="57" cy="79.9" fill="#FFFFFF" r="4.5"/><circle cx="83.8" cy="39.7" fill="#F0EF98" r="22.4"/><path d="M107.1,44.4c0.3-1.5,0.5-3.1,0.5-4.7c0-13.1-10.6-23.7-23.7-23.7S60.1,26.6,60.1,39.7   c0,1.1,0.1,2.1,0.2,3.1H12.3C6.6,42.8,2,47.4,2,53.1v53.7c0,10.6,8.6,19.2,19.2,19.2h71.5c10.6,0,19.2-8.6,19.2-19.2V53.1   C112,49.5,110.1,46.2,107.1,44.4z M83.8,18.7c11.6,0,21,9.4,21,21s-9.4,21-21,21s-21-9.4-21-21S72.2,18.7,83.8,18.7z M109.3,106.8   c0,9.1-7.4,16.5-16.5,16.5H21.2c-9.1,0-16.5-7.4-16.5-16.5V83c4.5,9.6,14.2,16.2,25.5,16.2h53.7c11.2,0,21-6.6,25.5-16.2V106.8z    M109.3,71c0,14.1-11.4,25.5-25.5,25.5H30.2C16.1,96.5,4.7,85.1,4.7,71V53.1c0-4.2,3.4-7.6,7.6-7.6h48.6   c2.6,10.3,11.9,17.9,23,17.9c10.5,0,19.4-6.8,22.5-16.3c1.9,1.4,3,3.6,3,6V71z" fill="#62355C"/><path d="M70.2,114.4h-2.2c-0.7,0-1.3,0.6-1.3,1.3c0,0.7,0.6,1.3,1.3,1.3h2.2c0.7,0,1.3-0.6,1.3-1.3   C71.5,115,70.9,114.4,70.2,114.4z" fill="#62355C"/><path d="M92.5,114.4h-2.2c-0.7,0-1.3,0.6-1.3,1.3c0,0.7,0.6,1.3,1.3,1.3h2.2c0.7,0,1.3-0.6,1.3-1.3   C93.9,115,93.3,114.4,92.5,114.4z" fill="#62355C"/><path d="M47.8,114.4h-2.2c-0.7,0-1.3,0.6-1.3,1.3c0,0.7,0.6,1.3,1.3,1.3h2.2c0.7,0,1.3-0.6,1.3-1.3   C49.1,115,48.5,114.4,47.8,114.4z" fill="#62355C"/><path d="M81.3,114.4h-2.2c-0.7,0-1.3,0.6-1.3,1.3c0,0.7,0.6,1.3,1.3,1.3h2.2c0.7,0,1.3-0.6,1.3-1.3   C82.7,115,82.1,114.4,81.3,114.4z" fill="#62355C"/><path d="M59,114.4h-2.2c-0.7,0-1.3,0.6-1.3,1.3c0,0.7,0.6,1.3,1.3,1.3H59c0.7,0,1.3-0.6,1.3-1.3   C60.3,115,59.7,114.4,59,114.4z" fill="#62355C"/><path d="M101.6,108.6c-0.7-0.3-1.5,0.1-1.7,0.8c-0.2,0.6-0.5,1.2-0.9,1.7c-0.4,0.6-0.3,1.4,0.4,1.9   c0.2,0.2,0.5,0.2,0.8,0.2c0.4,0,0.8-0.2,1.1-0.6c0.5-0.7,0.9-1.5,1.2-2.3C102.7,109.6,102.3,108.8,101.6,108.6z" fill="#62355C"/><path d="M14.7,110.7c-0.4-0.6-1.2-0.8-1.8-0.5c-0.6,0.4-0.8,1.2-0.5,1.8c0.4,0.7,1,1.4,1.6,2   c0.3,0.3,0.6,0.4,0.9,0.4c0.3,0,0.7-0.1,1-0.4c0.5-0.5,0.5-1.4,0-1.9C15.4,111.7,15,111.2,14.7,110.7z" fill="#62355C"/><path d="M13.6,102.7v-2.2c0-0.7-0.6-1.3-1.3-1.3s-1.3,0.6-1.3,1.3v2.2c0,0.7,0.6,1.3,1.3,1.3S13.6,103.4,13.6,102.7   z" fill="#62355C"/><path d="M25.4,114.4h-2.2c-0.7,0-1.3,0.6-1.3,1.3c0,0.7,0.6,1.3,1.3,1.3h2.2c0.7,0,1.3-0.6,1.3-1.3   C26.8,115,26.2,114.4,25.4,114.4z" fill="#62355C"/><path d="M36.6,114.4h-2.2c-0.7,0-1.3,0.6-1.3,1.3c0,0.7,0.6,1.3,1.3,1.3h2.2c0.7,0,1.3-0.6,1.3-1.3   C38,115,37.4,114.4,36.6,114.4z" fill="#62355C"/><path d="M101.7,97.4c-0.7,0-1.3,0.6-1.3,1.3v2.2c0,0.7,0.6,1.3,1.3,1.3c0.7,0,1.3-0.6,1.3-1.3v-2.2   C103.1,98,102.5,97.4,101.7,97.4z" fill="#62355C"/><path d="M57,74.1c-3.2,0-5.8,2.6-5.8,5.8c0,3.2,2.6,5.8,5.8,5.8s5.8-2.6,5.8-5.8C62.8,76.7,60.2,74.1,57,74.1z    M57,83.1c-1.7,0-3.1-1.4-3.1-3.1s1.4-3.1,3.1-3.1s3.1,1.4,3.1,3.1S58.7,83.1,57,83.1z" fill="#62355C"/><path d="M88.8,39.4c-1.1-0.3-2.1-0.6-3.1-0.9c-1-0.3-2.1-0.6-3.1-0.9c-2.3-0.7-3.4-1.7-3.4-2.9   c0-0.9,0.5-1.7,1.4-2.3c0.9-0.6,2-0.9,3.3-0.9c1.3,0,2.5,0.3,3.7,0.8c0.5,0.2,0.9,0.4,1.3,0.7c0.9,0.5,2-0.1,2-1.2   c0-0.5-0.2-0.9-0.6-1.1c-0.4-0.3-0.9-0.5-1.4-0.7c-0.7-0.3-1.5-0.5-2.3-0.7c-0.5-0.1-1-0.2-1.5-0.2v-2.8c0-0.7-0.6-1.3-1.3-1.3   s-1.3,0.6-1.3,1.3v2.8c-1.6,0.2-3,0.7-4.1,1.6c-1.5,1.1-2.2,2.5-2.2,4.2c0,1.8,0.9,3.2,2.6,4.2c0.9,0.5,2.7,1,5.4,1.7   c2.3,0.5,3.7,1.1,4.2,1.8c0.4,0.5,0.6,1,0.6,1.5c0,0.9-0.5,1.8-1.5,2.5c-1,0.7-2.3,1.1-3.8,1.1c-0.5,0-0.9,0-1.4-0.1   c-0.5-0.1-0.9-0.2-1.4-0.3c-0.9-0.3-1.8-0.7-2.7-1.2c-0.9-0.5-2,0.1-2,1.1c0,0.5,0.2,0.9,0.7,1.1c1.3,0.7,2.6,1.2,4,1.5   c0.6,0.1,1.2,0.2,1.7,0.3v3c0,0.7,0.6,1.3,1.3,1.3s1.3-0.6,1.3-1.3v-3c1.8-0.2,3.4-0.8,4.7-1.8c1.6-1.3,2.4-2.8,2.4-4.5   C92.2,41.9,91.1,40.4,88.8,39.4z" fill="#62355C"/></g></svg>